# xmcd CD database file
#
# Track frame offsets:
#	150
#	76876
#	108484
#	166951
#	217965
#	259360
#
# Disc length: 4353 seconds
#
# Revision: 0
# Processed by: cddbd v1.5.2PL0 Copyright (c) Steve Scherf et al.
# Submitted via: CDex 1.70beta2
#
DISCID=4a10ff06
DTITLE=Billy Cobham - Mirror's Image
DYEAR=1992
DGENRE=Jazz
TTITLE0=Mirror's Image
TTITLE1=Street Urchin
TTITLE2=Kinky Dee
TTITLE3=Leeward Winds
TTITLE4=Mirror Crack'd
TTITLE5=Layed Back Lifestyle
EXTD=YEAR: 1992
EXTT0=
EXTT1=
EXTT2=
EXTT3=
EXTT4=
EXTT5=
PLAYORDER=
